<?xml version="1.0" encoding="UTF-8"?>
<svg id="Layer_2" data-name="Layer 2" xmlns="http://www.w3.org/2000/svg" viewBox="0 0 713.01 191">
  <defs>
    <style>
      .cls-1 {
        fill: #c1272d;
      }

      .cls-1, .cls-2, .cls-3 {
        stroke-width: 0px;
      }

      .cls-4, .cls-5 {
        fill: none;
        stroke: #333;
        stroke-miterlimit: 77;
        stroke-width: 26px;
      }

      .cls-5 {
        stroke-dasharray: 0 0 27.01 4.82;
      }

      .cls-2 {
        fill: #333;
      }

      .cls-3 {
        fill: #fff;
      }
    </style>
  </defs>
  <g id="Logo_one" data-name="Logo one">
    <g>
      <g>
        <g>
          <g>
            <path class="cls-2" d="M85.65.63c9.85-1.32,19.84-.42,29.57,1.32,8.51,2.11,16.99,4.75,24.72,8.95,16.5,8.73,30.43,22.38,39.31,38.82-11.82,25.31-23.55,50.67-35.36,75.98-10.17-.08-20.33,0-30.49-.04,13.87-20.17,27.76-40.33,41.64-60.48,1.42-2.17,3.36-4.21,3.6-6.91.51-4.21.96-8.43,1.34-12.65.39-2.58-1.22-5.1-3.5-6.2-2.47-.76-5.1-.42-7.65-.48-23.18,0-46.36.03-69.54,0-1.99-.01-4.21.18-5.66,1.73-1.83,1.61-1.95,4.21-2.44,6.43-.5,3.29-1.57,6.51-1.66,9.85.04,2.89,2.53,5.49,5.46,5.45,9.37.19,18.75,0,28.14.08-13.61,19.36-27.22,38.72-40.83,58.08-1.55,2.4-3.65,4.53-4.58,7.28-.91,3.5-1.36,7.11-2.16,10.63-.5,2.56-1.44,5.5.16,7.87,1.19,2.1,3.71,2.86,6,2.84,31.62,0,63.23,0,94.84,0,2.52.23,5.09-1.03,6.02-3.47,3.27-7.06,6.35-14.2,9.58-21.28,4.8,0,9.6-.01,14.39.01-6.29,20.66-20.23,38.72-38.11,50.71-18.87,12.62-42.41,18.08-64.92,15.03-8.24-.77-16.17-3.38-23.91-6.19-21.57-8.62-39.63-25.53-49.91-46.34C1.72,121.19-1.65,102.42.77,84.24c.72-8.48,3.36-16.66,6.27-24.6C16.63,35.8,36.3,16.23,60.21,6.83c8.22-3.01,16.68-5.58,25.45-6.2Z"/>
            <path class="cls-2" d="M182.45,101.43c1.94-4.37,3.87-8.75,5.88-13.09.39,4.34.7,8.68,1.15,13.02-2.35.07-4.69.09-7.04.07Z"/>
          </g>
          <g>
            <path class="cls-1" d="M75.16,56.74c1.03-3.91,1.75-7.89,2.56-11.85,25.52,0,51.03,0,76.55,0-.49,4-.77,8.02-1.29,12.01-.05,1.25-.84,2.25-1.52,3.23-16.51,23.75-32.72,47.71-49.33,71.39,13.66-.22,27.32.06,40.99-.15-.81,3.9-1.43,7.85-2.15,11.78-26.75.16-53.5.02-80.25.06.77-4.21,1.57-8.4,2.33-12.6.26-1.99,1.74-3.45,2.8-5.06,15.68-22.23,31.34-44.48,47.01-66.71.6-.81,1.24-1.58,1.93-2.32-13.21.37-26.42-.05-39.63.22Z"/>
            <path class="cls-1" d="M187.97,44.89c12.24.03,24.47,0,36.71.01,3.51,32.78,7.18,65.54,10.66,98.32-12.11,0-24.21.01-36.32-.01-.72-8.18-1.4-16.37-2.11-24.56-9.52-.03-19.04.04-28.56-.04-3.75,8.18-7.38,16.42-11.11,24.61-4.97,0-9.95,0-14.92,0,15.21-32.78,30.42-65.56,45.66-98.32ZM192.23,65.08c-6.13,14.13-12.6,28.12-18.89,42.18,7.51-.11,15.02-.03,22.53-.04-1.28-14.04-2.19-28.11-3.64-42.14Z"/>
            <path class="cls-1" d="M263.63,44.9c11.22,0,22.44,0,33.66,0-6.92,32.79-13.96,65.56-21.05,98.32-11.16,0-22.33,0-33.49,0,6.96-32.78,13.95-65.54,20.88-98.32Z"/>
            <path class="cls-1" d="M314.16,44.93c12.32-.03,24.65-.08,36.96.03,4.76,19.79,9.06,39.71,13.63,59.56.94,4.57,2.32,9.06,2.75,13.73.61-5.08,1.97-10.03,2.96-15.04,4.11-19.41,8.3-38.82,12.31-58.26,4.74-.12,9.49-.03,14.23-.06-6.96,32.79-14.09,65.55-21.2,98.31-12.06,0-24.11,0-36.17,0-4.12-17.07-8.24-34.15-12.38-51.21-1.54-6.86-3.55-13.62-4.77-20.55-4.92,23.96-10.18,47.86-15.34,71.77-4.61,0-9.22,0-13.83,0,6.94-32.76,13.98-65.5,20.85-98.28Z"/>
          </g>
          <g>
            <path class="cls-1" d="M288.5,183.54v-33.95h12.19c4.37,0,7.69.8,9.97,2.4s3.42,3.92,3.42,6.97c0,1.76-.4,3.26-1.21,4.5s-2,2.16-3.57,2.75c1.77.47,3.13,1.34,4.08,2.61s1.42,2.83,1.42,4.66c0,3.33-1.05,5.82-3.16,7.5s-5.23,2.52-9.36,2.55h-13.78ZM296.68,163.74h4.27c1.79-.02,3.06-.34,3.82-.98s1.14-1.58,1.14-2.83c0-1.43-.41-2.47-1.24-3.1s-2.15-.95-3.99-.95h-4.01v7.86ZM296.68,169.11v8.14h5.36c1.48,0,2.61-.34,3.4-1.01s1.19-1.63,1.19-2.86c0-2.83-1.41-4.25-4.22-4.27h-5.74Z"/>
            <path class="cls-1" d="M347.6,149.59v22.22c0,2.52-.54,4.7-1.61,6.54-1.07,1.84-2.61,3.24-4.62,4.21-2.01.96-4.38,1.45-7.11,1.45-4.13,0-7.39-1.07-9.77-3.22-2.38-2.15-3.59-5.08-3.64-8.81v-22.38h8.23v22.55c.09,3.71,1.82,5.57,5.18,5.57,1.69,0,2.98-.47,3.85-1.4s1.31-2.45,1.31-4.55v-22.17h8.18Z"/>
            <path class="cls-1" d="M371.89,174.52c0-1.2-.42-2.13-1.27-2.8s-2.34-1.36-4.46-2.08-3.87-1.41-5.22-2.08c-4.4-2.16-6.6-5.13-6.6-8.91,0-1.88.55-3.54,1.64-4.98,1.1-1.44,2.65-2.56,4.65-3.36s4.26-1.2,6.76-1.2,4.63.44,6.56,1.31,3.44,2.11,4.51,3.72c1.07,1.61,1.61,3.45,1.61,5.51h-8.16c0-1.38-.42-2.46-1.27-3.22s-1.99-1.14-3.44-1.14-2.62.32-3.46.97-1.27,1.46-1.27,2.46c0,.87.47,1.66,1.4,2.37s2.57,1.44,4.92,2.19,4.27,1.57,5.78,2.44c3.67,2.11,5.5,5.03,5.5,8.74,0,2.97-1.12,5.3-3.36,6.99s-5.31,2.54-9.21,2.54c-2.75,0-5.24-.49-7.47-1.48-2.23-.99-3.91-2.34-5.04-4.06-1.13-1.72-1.69-3.7-1.69-5.93h8.21c0,1.82.47,3.16,1.41,4.02s2.47,1.29,4.58,1.29c1.35,0,2.42-.29,3.21-.87s1.18-1.4,1.18-2.46Z"/>
          </g>
        </g>
        <g>
          <g>
            <path class="cls-1" d="M532.26,25.56c-.72,2.06-.03,4.09,1.46,5.6.25.11.74.3.98.4-.09-.68-.28-2.03-.37-2.71,1.03-.85,2.05-1.7,3.08-2.56.23-.74.48-1.49.73-2.22,12.49.11,24.98,0,37.47.03.62,5.44,5.58,10.17,11.2,9.61,5.13-.2,9.15-4.68,9.84-9.6,28.08-.11,56.16.14,84.23-.1,3.81,3.28,7.24,6.96,10.82,10.48.19.19.56.56.74.74,3.4-3.21,6.55-6.68,9.92-9.93.6-.62,1.2-1.25,1.8-1.88-3.87-3.96-8.02-7.64-11.75-11.74-1.63,1.73-3.28,3.42-4.95,5.11-1.57,1.55-3.02,3.21-4.64,4.7-.49.29-1.46.88-1.95,1.18-7.09-.4-14.21-.02-21.3-.07-21.02-.05-42.03.11-63.04-.09-.5-6.52-7.76-11.42-13.92-8.96-3.92,1.36-6.28,5.1-7.02,9.01-12.47.06-24.96-.03-37.43.04-.43-2.14-2.16-3.47-3.8-4.72.07-.74.21-2.23.28-2.98-1.86,1.4-3.26,3.53-2.37,5.92-1.64.92-3.32,1.78-5.02,2.57,1.67.7,3.34,1.43,5.01,2.17ZM576.7,22.61c.24-3.38,2.55-6.37,5.53-7.86,5.02-2.47,11.71.71,12.94,6.16,1.76,5.42-2.8,11.58-8.44,11.75-5.47.61-10.57-4.64-10.03-10.06Z"/>
            <path class="cls-1" d="M710.01,50.82c-4-2.68-8.66-4.09-13.29-5.23-3.94-.34-7.94-.48-11.83.35-9.09,1.92-16.88,7.76-23.02,14.54-11.38,12.75-18.7,28.5-24.42,44.44-3.72,10.61-8.3,21.06-15.18,30.01-2.17,2.97-4.75,5.6-7.16,8.36-1.7,1.55-3.43,3.04-5.19,4.51-4.21,3.6-9.14,6.25-14.13,8.6-9.15,4.05-19.31,5.42-29.26,5.06-3.66-.06-7.25-.91-10.9-.93-1.55-.4-3.07-.83-4.59-1.26-1.55-.53-3.09-1.02-4.65-1.47,3.01-4.68,5.61-9.64,7.6-14.84,3.21-8.24,4.44-17.05,7.04-25.47.47-1.55.94-3.1,1.41-4.64.58-1.86,1.15-3.72,1.72-5.58,2.26.06,4.52.16,6.76.49,11.2.44,22.42.11,33.6-.72,8.58-1.76,15.02-8.66,19.62-15.73,4.3-6.37,6.04-13.97,9.7-20.66.74-1.44,1.53-2.86,2.41-4.21,1.1-1.6,2.32-3.11,3.54-4.64,4.39-5.01,10.37-9.06,17.27-9.04-.91-.49-1.83-.96-2.75-1.4-6.84-3.33-14.54-5.53-22.19-4.68-7.33.83-13.23,6.12-17.07,12.11-2.78,4.43-4.84,9.27-7.26,13.89-3.34,6.33-5.43,13.48-10.15,18.98-8.37,8.37-20.67,11.12-32.11,11.79,4-10.5,8.6-20.99,15.61-29.88,1.13-1.45,2.35-2.84,3.62-4.17.7-.71,1.44-1.4,2.18-2.08.17-.15.51-.45.68-.61,4.67-4.41,10.92-6.82,17.34-6.81-1.78-.79-3.59-1.5-5.44-2.12-9.1-4.19-20.2-3.86-28.9,1.18-8.91,4.87-15.13,13.27-20.21,21.83-3.42,5.91-5.91,12.28-8.15,18.72-.55,1.5-1.1,2.99-1.62,4.51-1.42,4.33-2.88,8.65-3.95,13.09-.4,2.52-1.04,4.98-1.75,7.43-1.24,4.95-2.67,9.86-4.55,14.61-1.08,2.87-2.3,5.7-3.75,8.41-.57,1.02-1.13,2.05-1.71,3.07-1.91,3.38-3.94,6.7-6.37,9.73-8.08,10.84-19.84,18.82-32.91,22.33-10.63,3.52-22.23,1.64-32.49-2.22-14.67-5.48-27.15-16.39-34.6-30.15-8.4-15.1-10.04-33.48-5.66-50.1,2.28-10.36,7.68-19.79,14.61-27.73,3.22-3.25,6.46-6.48,10.14-9.22,2.48-2.11,5.23-3.87,7.97-5.62,3.43-2.31,7.19-4.05,10.82-6.03-3.43,3.37-5.7,8.07-4.97,12.97.61,8.7,9.85,15.46,18.32,13.31,6.76-1.53,11.99-7.92,11.91-14.89.06-8.4-7.77-15.79-16.18-15.06-5.99.94-11.82,2.8-17.39,5.16-2.22.97-4.41,2.03-6.53,3.21-3,1.65-5.82,3.6-8.58,5.63-1.18.94-2.34,1.9-3.49,2.89-10.86,9.46-18.96,22.15-22.42,36.18-4.01,14.95-2.69,31.14,3.17,45.42,6.71,15.8,19.11,29.26,34.63,36.72,9.22,4.37,19.18,7.45,29.45,7.66,7.84.44,15.7.17,23.5-.63,10.59-1.32,20.97-5.16,29.52-11.59,1.98-1.42,3.93-2.89,5.75-4.51,2.33-2.26,4.64-4.54,6.7-7.06.94-1.13,1.87-2.27,2.77-3.43,1.19-1.7,2.36-3.42,3.59-5.09,1.12.46,2.24.93,3.37,1.36,11.44,5.24,23.65,8.93,36.24,9.85,3.67.03,7.35-.11,11.02-.27.95-.04,1.89-.1,2.85-.19,4.59-.57,9.04-1.88,13.43-3.3,4.34-1.62,8.49-3.69,12.38-6.2.99-.61,1.99-1.2,2.96-1.84,9.84-7.05,17.7-16.62,23.66-27.11,3.95-6.82,6.12-14.44,9.08-21.69,4.74-11.96,10.19-23.74,17.52-34.34.57-.85,1.15-1.69,1.75-2.52,1.19-1.63,2.44-3.23,3.77-4.76,1.42-1.65,2.93-3.23,4.47-4.76,3.9-3.87,8.53-7.11,13.7-9.03,3.2-1.28,6.74-1.55,10.11-.81.13-.06.4-.18.53-.23-1-.61-1.99-1.21-3-1.79ZM459.58,51.34c6.57-4.64,16.96-.87,19.59,6.71,2.72,6.7-.73,14.65-7.15,17.73l-.27-.1c-7.17,3.37-16.49-1.01-18.53-8.64-1.88-5.88.84-12.86,6.36-15.71Z"/>
            <path class="cls-1" d="M481.06,120.22c-5.31-5.17-10.57-10.38-15.86-15.58-.66.53-1.29,1.08-1.92,1.64-3.62,3.76-7.28,7.47-10.93,11.2,4.53,2.77,9.36,5.03,13.78,7.97-4.83-.71-9.78-.87-14.54.45,4.66,4.43,9.19,8.98,13.78,13.49,5.65-5.74,11.16-11.63,17.02-17.16.58.03,1.74.11,2.32.14,1.46.17,3,.38,4.19,1.32,1.7,1.12.56,3.92,2.51,4.85,1.42.44,3.29-.11,4.38,1.12,1.21,1.34.11,3.15.1,4.68,2.56-1.25,3.03-3.96,1.93-6.36.4-.16,1.19-.49,1.58-.66-.75-2.38-3.61-2.24-5.56-2.9,3.09-3.12,5.7,2.15,8.84,1.84.24-.41.71-1.25.95-1.66.22-.14.66-.4.87-.54,1.18-.69,2.27-1.51,3.31-2.39-2.5-1.11-4.14-3.44-6.57-4.59-1.85,1.7-5.01,4.75-7.32,2.05,2.04-.31,4.07-.78,5.64-2.2-.57-.51-1.14-1.02-1.72-1.52,1.38-2.3.4-4.83-1.81-6.14.13,1.29.22,2.58.28,3.87-.82,2.13-3.44,1.64-5.21,2.21-1,1.18-1.08,2.84-1.54,4.27-1.31,1.08-2.97,1.46-4.59,1.8-1.38-.1-2.96,0-3.92-1.2Z"/>
            <path class="cls-1" d="M597.1,118.62c-.39.38-1.17,1.13-1.57,1.5-.4.4-.77.82-1.15,1.24-2.3,2.38-4.71,4.66-6.95,7.09-3.66-3.04-6.62-6.82-10.32-9.8-2.05,2.16-4.19,4.24-6.29,6.37-1.71,1.88-3.52,3.66-5.22,5.54,3.91,3.74,7.81,7.49,11.55,11.4,1.81-1.63,3.62-3.28,5.39-4.95,1.59-1.58,3.22-3.12,4.89-4.63,3.18,3.32,6.53,6.49,9.81,9.72,2.19-2.26,4.34-4.56,6.59-6.75,1.02-1.05,2.01-2.12,3.03-3.16.66-.57,1.29-1.15,1.97-1.71-3.66-4.19-7.9-7.83-11.74-11.87Z"/>
            <path class="cls-1" d="M645.48,146.64c-2.94,5.83-7.74,10.46-12.56,14.76-4.17,3.44-8.74,6.42-13.69,8.58-10.37,4.85-22.15,6.34-33.48,5.15-2.27-.23-4.52-.61-6.8-.81,6.03,2.96,12.94,3.74,19.58,4.26,6.92.2,13.95-.53,20.4-3.18,2.63-1.01,5.03-2.48,7.51-3.81,4.5-2.96,8.4-6.78,11.68-11.04,3.31-4.29,6.4-9.13,8.12-14.29.15-.44.35-.9.35-1.36-.49.38-.84,1.19-1.12,1.75Z"/>
          </g>
          <g>
            <path class="cls-2" d="M462.88,10.7h-41.33c1.23,1.58,1.23,2.92,1.23,4.74v20.17c-6.9,8.24-17.19,12.34-27.65,12.45-11.17.12-22.62-4.38-30.52-13.15-1.58,1.4-3.04,2.81-4.44,4.38,9.18,10.17,22.22,15.32,35.02,15.14,11.87-.23,23.62-5.03,32.1-14.67h49.4l.76-15.43c.35-7.66-5.14-13.62-14.56-13.62ZM471.89,33.5h-43.44v-16.54h34.43c4.09,0,9,1.87,9,8.54v8.01Z"/>
            <polygon class="cls-2" points="514.11 15.73 515.75 18.47 515.75 33.5 497.1 33.5 495.7 33.5 493.59 33.5 493.59 0 485.7 1.75 487.33 4.5 487.33 39.75 495.7 39.75 497.1 39.75 522 39.75 522 13.97 514.11 15.73"/>
            <polygon class="cls-2" points="505.63 48.99 510.43 53.78 515.16 48.99 510.43 44.31 505.63 48.99"/>
          </g>
        </g>
      </g>
      <g>
        <line class="cls-5" x1="219.75" y1="166.19" x2="269.68" y2="166.19"/>
        <line class="cls-4" x1="271.64" y1="166.19" x2="283.05" y2="166.19"/>
      </g>
      <path class="cls-2" d="M148.51,179.5c22.95-.06,45.9-.12,68.85-.17v-26c-13.62.06-27.24.12-40.85.17-2.73,3.93-6.33,8.44-11,13-6.06,5.92-12.08,10.1-17,13Z"/>
      <path class="cls-3" d="M279.81,167.83h-7v-3h7v3ZM269.81,167.83h-7v-3h7v3ZM259.81,167.83h-7v-3h7v3ZM249.81,167.83h-7v-3h7v3ZM239.81,167.83h-7v-3h7v3ZM229.81,167.83h-7v-3h7v3ZM219.81,167.83h-7v-3h7v3ZM209.81,167.83h-7v-3h7v3ZM199.81,167.83h-7v-3h7v3ZM189.81,167.83h-7v-3h7v3ZM179.81,167.83h-7v-3h7v3ZM169.81,167.83h-7v-3h7v3Z"/>
    </g>
  </g>
</svg>