<?xml version="1.0" encoding="UTF-8"?>
<svg id="Layer_2" data-name="Layer 2" xmlns="http://www.w3.org/2000/svg" viewBox="0 0 148.61 444.91">
  <defs>
    <style>
      .cls-1 {
        fill: #c1272d;
        stroke-width: 0px;
      }
    </style>
  </defs>
  <g id="Layer_3" data-name="Layer 3">
    <g>
      <path class="cls-1" d="M41.13,48.59c3-2.24,6.16-4.33,8.81-6.99,2.87-2.77,3.01-7.07,2.77-10.78-.92-10.35-3.2-20.51-4.4-30.82-8.49,6.48-17.13,12.75-25.58,19.28-5.18,3.95-6.03,10.93-6.29,16.97.05,10.16,1.9,20.28,4.94,29.96,6.18-6.31,12.57-12.45,19.75-17.62Z"/>
      <path class="cls-1" d="M148.16,277.08c-.97-9.72-5.17-18.69-9.12-27.49-9.78-20.43-21.99-39.58-34.23-58.6-17.58-28.11-36.42-55.93-47.73-87.32-5.77-16.75-9.15-35.65-2.59-52.68-15.74,7.59-30.05,20.53-35.24,37.66h0c-4.94,17.17-.12,35.31,6.9,51.17,10.29,23.14,24.85,44.01,39.35,64.66,12.13,17.9,25.14,35.27,35.54,54.29,5.84,10.25,10.88,21.05,13.91,32.49,1.98,7.82,2.94,16.09,1.29,24.07-2.49,14.77-7.04,29.21-13.68,42.66-12.57,25.75-30.23,48.68-49.8,69.48-5.06,5.88-11.09,10.95-15.41,17.44,6.04-1.99,10.66-6.51,15.42-10.51,10.28-8.96,19.79-18.77,29.07-28.74,17.31-19.41,33.54-39.95,46.78-62.39,7.09-12.76,13.8-25.96,17.35-40.2,2.17-8.45,3.36-17.29,2.19-25.99Z"/>
      <path class="cls-1" d="M41.61,430.17c14.69-16.26,28.12-33.69,39.68-52.32,9.43-15.05,17.91-30.89,23.02-47.97,2.22-7.66,3.58-15.63,3.36-23.63-.09-6.83-2.46-13.33-4.86-19.63-7.43-18.54-17.46-35.91-28.16-52.72-5.89,7.9-11.8,15.8-17.69,23.71,10.65,20.69,22.78,40.93,29.18,63.48,2.4,8.69,4.28,18.52-.08,26.94-3.11-4.38-4.93-9.47-7.04-14.37-4.07-10.03-7.78-20.2-11.65-30.31-6.75,11.19-13.78,22.22-20.42,33.47,5.57,9.93,13.13,19.15,15.81,30.47.84,2.73.1,5.56-1.85,7.62-3.1-1.39-5.92-3.42-8.09-6.05-10.59-12.44-18.62-26.89-24.94-41.9-3.3-8.5-6.37-17.46-5.87-26.7,1-5.73,3.7-11.01,6.35-16.13,11.01-19.58,25.39-36.99,40.1-53.88-9.25,3.63-16.6,10.53-24.12,16.8-15.2,13.98-29.32,29.8-38.19,48.64-6.19,13.21-8.76,29.05-2.68,42.79,10.69,25.66,26.09,49.01,40.93,72.37-4.33,9.75-9.19,19.27-13.86,28.87,4.47-2.17,7.68-6.06,11.07-9.55Z"/>
      <path class="cls-1" d="M62.79,297.02c-3.98-10.16-7.96-20.32-12.03-30.44-7.01,11.37-13.86,22.83-20.78,34.25,4.03,9.56,7.96,19.17,12.32,28.59,6.83-10.8,13.64-21.62,20.49-32.4Z"/>
      <path class="cls-1" d="M116.71,372.31c2.05,5.71,4.12,11.42,6.16,17.14,5.28-6.56,10.57-13.11,15.74-19.76-2.67-6-5.48-11.94-8.18-17.92-4.22,7.08-9.3,13.59-13.72,20.54Z"/>
      <path class="cls-1" d="M97.9,398.55c1.8,5.81,3.56,11.63,5.37,17.43,5.53-6.59,11.12-13.15,16.67-19.73-2.4-6.02-4.9-12-7.33-18.01-4.74,6.88-9.85,13.51-14.71,20.31Z"/>
    </g>
  </g>
</svg>